<svg width="266" height="56" viewBox="0 0 266 56" fill="none" xmlns="http://www.w3.org/2000/svg">
<path d="M66.644 39.176C67.26 40.2907 67.9493 41.2587 68.712 42.08C69.504 42.9013 70.3547 43.532 71.264 43.972C72.2027 44.412 73.1853 44.632 74.212 44.632C75.2973 44.632 76.192 44.368 76.896 43.84C77.6 43.2827 77.952 42.5347 77.952 41.596C77.952 40.804 77.7467 40.1733 77.336 39.704C76.9253 39.2053 76.2653 38.736 75.356 38.296C74.4467 37.856 73.244 37.3573 71.748 36.8C71.0147 36.536 70.164 36.1693 69.196 35.7C68.2573 35.2307 67.3627 34.6293 66.512 33.896C65.6613 33.1333 64.9573 32.224 64.4 31.168C63.8427 30.0827 63.564 28.7773 63.564 27.252C63.564 25.4333 64.0333 23.864 64.972 22.544C65.94 21.224 67.2307 20.2267 68.844 19.552C70.4867 18.848 72.3053 18.496 74.3 18.496C76.3533 18.496 78.128 18.8333 79.624 19.508C81.1493 20.1827 82.4107 21.0333 83.408 22.06C84.4053 23.0867 85.168 24.128 85.696 25.184L80.02 28.352C79.58 27.6187 79.0667 26.988 78.48 26.46C77.9227 25.9027 77.292 25.4773 76.588 25.184C75.9133 24.8613 75.18 24.7 74.388 24.7C73.332 24.7 72.5253 24.9347 71.968 25.404C71.4107 25.844 71.132 26.4013 71.132 27.076C71.132 27.78 71.396 28.396 71.924 28.924C72.4813 29.452 73.2587 29.936 74.256 30.376C75.2827 30.816 76.5147 31.2853 77.952 31.784C79.0373 32.1947 80.0493 32.6787 80.988 33.236C81.9267 33.764 82.748 34.4093 83.452 35.172C84.1853 35.9347 84.7573 36.8147 85.168 37.812C85.5787 38.8093 85.784 39.9533 85.784 41.244C85.784 42.7987 85.4613 44.192 84.816 45.424C84.2 46.6267 83.3493 47.6387 82.264 48.46C81.208 49.2813 79.9907 49.8973 78.612 50.308C77.2627 50.748 75.8693 50.968 74.432 50.968C72.4373 50.968 70.5747 50.616 68.844 49.912C67.1427 49.1787 65.6613 48.196 64.4 46.964C63.1387 45.732 62.156 44.3827 61.452 42.916L66.644 39.176ZM103.516 50V29.76H110.16V50H103.516ZM97.048 42.08C97.048 43.2827 97.268 44.2067 97.708 44.852C98.148 45.4973 98.9107 45.82 99.996 45.82C100.729 45.82 101.345 45.6733 101.844 45.38C102.372 45.0573 102.783 44.632 103.076 44.104C103.369 43.5467 103.516 42.872 103.516 42.08L104.836 41.816C104.836 43.4 104.557 44.852 104 46.172C103.443 47.492 102.607 48.548 101.492 49.34C100.407 50.1027 99.028 50.484 97.356 50.484C94.8333 50.484 92.9853 49.824 91.812 48.504C90.668 47.184 90.096 45.2773 90.096 42.784V29.76H97.048V42.08ZM106.508 19.728L98.588 26.328L94.848 24.436L101.448 17.396L106.508 19.728ZM113.029 29.76H126.581V35.26H113.029V29.76ZM116.593 22.72H122.973V50H116.593V22.72ZM129.529 15.416L136.217 16.824L130.673 27.824L125.657 26.812L129.529 15.416ZM135.265 43.664C135.265 44.192 135.397 44.6467 135.661 45.028C135.925 45.38 136.277 45.6587 136.717 45.864C137.157 46.04 137.641 46.128 138.169 46.128C138.932 46.128 139.636 45.9667 140.281 45.644C140.926 45.3213 141.454 44.8373 141.865 44.192C142.276 43.5467 142.481 42.7547 142.481 41.816L143.185 44.456C143.185 45.7467 142.833 46.8467 142.129 47.756C141.425 48.636 140.516 49.3107 139.401 49.78C138.286 50.22 137.084 50.44 135.793 50.44C134.502 50.44 133.3 50.2053 132.185 49.736C131.1 49.2373 130.22 48.504 129.545 47.536C128.9 46.568 128.577 45.3947 128.577 44.016C128.577 42.08 129.266 40.5547 130.645 39.44C132.024 38.296 133.974 37.724 136.497 37.724C137.729 37.724 138.829 37.8413 139.797 38.076C140.794 38.3107 141.645 38.604 142.349 38.956C143.053 39.308 143.581 39.6747 143.933 40.056V43.004C143.229 42.476 142.408 42.08 141.469 41.816C140.56 41.5227 139.592 41.376 138.565 41.376C137.773 41.376 137.142 41.464 136.673 41.64C136.204 41.816 135.852 42.08 135.617 42.432C135.382 42.7547 135.265 43.1653 135.265 43.664ZM132.317 35.964L130.073 31.52C131.217 30.9627 132.596 30.4347 134.209 29.936C135.822 29.4373 137.582 29.188 139.489 29.188C141.278 29.188 142.877 29.452 144.285 29.98C145.693 30.4787 146.808 31.212 147.629 32.18C148.45 33.148 148.861 34.336 148.861 35.744V50H142.481V37.24C142.481 36.7413 142.393 36.316 142.217 35.964C142.07 35.5827 141.836 35.26 141.513 34.996C141.19 34.732 140.78 34.5413 140.281 34.424C139.812 34.3067 139.269 34.248 138.653 34.248C137.744 34.248 136.849 34.3507 135.969 34.556C135.118 34.7613 134.37 35.0107 133.725 35.304C133.08 35.568 132.61 35.788 132.317 35.964ZM163.648 21.136L167.696 17.396L172.36 20.52L163.648 26.68L154.98 20.52L159.644 17.396L163.648 21.136ZM162.592 35.788H153.748V29.76H173.548L163.384 43.972H172.14V50H151.9L162.592 35.788ZM175.467 39.88C175.467 37.8267 175.922 36.008 176.831 34.424C177.77 32.84 179.031 31.5933 180.615 30.684C182.199 29.7747 183.974 29.32 185.939 29.32C187.934 29.32 189.709 29.7747 191.263 30.684C192.847 31.5933 194.094 32.84 195.003 34.424C195.942 36.008 196.411 37.8267 196.411 39.88C196.411 41.904 195.942 43.7227 195.003 45.336C194.094 46.92 192.847 48.1667 191.263 49.076C189.709 49.9853 187.934 50.44 185.939 50.44C183.974 50.44 182.199 49.9853 180.615 49.076C179.031 48.1667 177.77 46.92 176.831 45.336C175.922 43.7227 175.467 41.904 175.467 39.88ZM179.031 39.88C179.031 41.288 179.325 42.5347 179.911 43.62C180.527 44.7053 181.349 45.5707 182.375 46.216C183.431 46.832 184.619 47.14 185.939 47.14C187.259 47.14 188.433 46.832 189.459 46.216C190.515 45.5707 191.337 44.7053 191.923 43.62C192.539 42.5347 192.847 41.288 192.847 39.88C192.847 38.472 192.539 37.2253 191.923 36.14C191.337 35.0253 190.515 34.16 189.459 33.544C188.433 32.928 187.259 32.62 185.939 32.62C184.619 32.62 183.431 32.928 182.375 33.544C181.349 34.16 180.527 35.0253 179.911 36.14C179.325 37.2253 179.031 38.472 179.031 39.88ZM228.967 37.24V50H225.447V37.68C225.447 35.9493 225.124 34.6733 224.479 33.852C223.863 33.0307 222.895 32.62 221.575 32.62C220.607 32.62 219.771 32.8253 219.067 33.236C218.363 33.6173 217.82 34.1893 217.439 34.952C217.058 35.7147 216.867 36.624 216.867 37.68V50H213.347V37.68C213.347 35.9493 213.024 34.6733 212.379 33.852C211.763 33.0307 210.795 32.62 209.475 32.62C208.507 32.62 207.671 32.8253 206.967 33.236C206.263 33.6173 205.72 34.1893 205.339 34.952C204.958 35.7147 204.767 36.624 204.767 37.68V50H201.247V29.76H204.767V32.708C205.383 31.564 206.146 30.7133 207.055 30.156C207.994 29.5987 209.094 29.32 210.355 29.32C211.763 29.32 212.966 29.6573 213.963 30.332C214.99 30.9773 215.738 31.9013 216.207 33.104C216.911 31.8427 217.791 30.904 218.847 30.288C219.903 29.6427 221.106 29.32 222.455 29.32C223.834 29.32 225.007 29.628 225.975 30.244C226.943 30.86 227.676 31.7693 228.175 32.972C228.703 34.1453 228.967 35.568 228.967 37.24ZM237.163 43.752C237.163 44.5147 237.339 45.1747 237.691 45.732C238.072 46.2893 238.586 46.7147 239.231 47.008C239.906 47.272 240.668 47.404 241.519 47.404C242.604 47.404 243.572 47.184 244.423 46.744C245.303 46.304 245.992 45.688 246.491 44.896C247.019 44.0747 247.283 43.136 247.283 42.08L247.987 44.72C247.987 46.0107 247.591 47.0813 246.799 47.932C246.036 48.7827 245.083 49.4133 243.939 49.824C242.824 50.2347 241.71 50.44 240.595 50.44C239.363 50.44 238.204 50.1907 237.119 49.692C236.063 49.164 235.212 48.416 234.567 47.448C233.922 46.48 233.599 45.3067 233.599 43.928C233.599 41.9627 234.288 40.3933 235.667 39.22C237.075 38.0173 239.026 37.416 241.519 37.416C242.986 37.416 244.203 37.592 245.171 37.944C246.168 38.2667 246.96 38.648 247.547 39.088C248.134 39.4987 248.53 39.836 248.735 40.1V42.168C247.708 41.464 246.652 40.9653 245.567 40.672C244.482 40.3493 243.323 40.188 242.091 40.188C240.947 40.188 240.008 40.3347 239.275 40.628C238.571 40.9213 238.043 41.332 237.691 41.86C237.339 42.388 237.163 43.0187 237.163 43.752ZM236.635 34.424L234.919 31.828C235.682 31.2707 236.723 30.7133 238.043 30.156C239.392 29.5987 241.006 29.32 242.883 29.32C244.467 29.32 245.846 29.5693 247.019 30.068C248.222 30.5373 249.146 31.2267 249.791 32.136C250.466 33.0453 250.803 34.16 250.803 35.48V50H247.283V35.964C247.283 35.26 247.166 34.688 246.931 34.248C246.696 33.7787 246.359 33.412 245.919 33.148C245.508 32.884 245.024 32.6933 244.467 32.576C243.91 32.4587 243.323 32.4 242.707 32.4C241.71 32.4 240.8 32.5173 239.979 32.752C239.187 32.9867 238.512 33.2653 237.955 33.588C237.398 33.9107 236.958 34.1893 236.635 34.424ZM253.682 29.76H263.802V33.06H253.682V29.76ZM256.982 22.72H260.502V50H256.982V22.72Z" fill="#55C01B"/>
<path d="M46.3959 23.5554V54H4.95973V23.5554M46.3959 23.5554H4.95973M46.3959 23.5554H49.3556V14.422H2V23.5554H4.95973M25.6778 14.422C28.1441 8.84051 34.5567 -2.32252 40.4761 3.7664C46.3956 9.85532 33.0771 13.9146 25.6778 14.422ZM25.6778 14.422C23.2115 8.84051 16.7986 -2.32252 10.8791 3.7664C4.9597 9.85532 18.2785 13.9146 25.6778 14.422Z" stroke="#55C01B" stroke-width="4" stroke-linecap="round" stroke-linejoin="round"/>
</svg>
